<?xml version="1.0" encoding="utf-8"?>
<!-- Generator: Adobe Illustrator 14.0.0, SVG Export Plug-In . SVG Version: 6.00 Build 43363)  -->
<!DOCTYPE svg PUBLIC "-//W3C//DTD SVG 1.1//EN" "http://www.w3.org/Graphics/SVG/1.1/DTD/svg11.dtd">
<svg version="1.1" id="Layer_1" xmlns="http://www.w3.org/2000/svg" xmlns:xlink="http://www.w3.org/1999/xlink" x="0px" y="0px"
	 width="320px" height="100px" viewBox="0 0 320 100" enable-background="new 0 0 320 100" xml:space="preserve">
<g>
	<path fill="#ABADB0" d="M93.826,14.329v0.005l-0.18-0.005h-0.007h-0.018c-3.028,0-5.098,1.313-6.449,3.104l-0.317,0.433V8.59
		h-2.244v25.93h2.244V23.129c0.011-3.926,2.841-6.706,6.528-6.714c3.807,0.023,5.949,2.502,5.963,6.422l-0.005,11.669h2.24V22.487
		c0-2.353-0.734-4.393-2.098-5.853C98.166,15.217,96.231,14.365,93.826,14.329"/>
	<polygon fill="#ABADB0" points="176.793,14.778 169.672,31.373 169.518,31.746 162.322,14.778 159.74,14.778 168.598,34.661 
		170.434,34.661 179.299,14.778 	"/>
	<path fill="#ABADB0" d="M134.305,29.823c-1.61,1.723-3.634,3.02-6.23,3.02c-4.335-0.006-7.773-3.623-7.773-8.202v-0.07
		c0-4.529,3.331-8.115,7.627-8.115c2.806,0,4.648,1.433,6.299,3.124l0.083,0.071l0.066,0.07l1.595-1.641l-0.131-0.135
		c-1.836-1.899-4.16-3.616-7.863-3.616l-0.184,0.023v-0.023c-5.578,0.098-9.887,4.847-9.887,10.312v0.085
		c0.018,5.525,4.363,10.237,10.042,10.242h0.018h0.01c3.622-0.004,6.033-1.638,8.023-3.898l0.071-0.071l0.055-0.07l-1.589-1.398
		l-0.107,0.143L134.305,29.823z"/>
	<path fill="#ABADB0" d="M138.168,24.641v0.085c0.011,5.521,4.255,10.237,10.096,10.242c5.878,0,10.167-4.804,10.179-10.327v-0.07
		c-0.012-5.528-4.263-10.236-10.099-10.242C142.462,14.329,138.179,19.12,138.168,24.641 M148.268,16.456
		c4.361,0,7.766,3.626,7.766,8.185v0.085c0,4.458-3.214,8.117-7.69,8.117c-4.361,0-7.784-3.623-7.784-8.202v-0.07
		C140.56,20.12,143.784,16.456,148.268,16.456"/>
	<path fill="#ABADB0" d="M108.367,8.59h-2.244v17.741h0.008l0.006,0.164c0.084,1.901,0.776,3.62,1.896,5.014
		c1.56,1.923,3.946,3.152,6.619,3.152h0.775v-2.263h-0.58V32.39l-0.245,0.009c-3.423,0-6.229-2.801-6.236-6.263v-9.262h7.06v-2.094
		h-7.06V8.59z"/>
	<path fill="#ABADB0" d="M37.674,34.505h2.214v-9.45c0.013-4.649,3.777-8.42,8.427-8.42h0.195v-2.225h-0.195
		c-5.876,0-10.642,4.766-10.642,10.656V34.505z"/>
	<rect x="52.801" y="14.779" fill="#ABADB0" width="2.249" height="19.74"/>
	<path fill="#ABADB0" d="M23.674,14.329c-3.04,0-5.651,1.275-7.471,3.295l-0.311,0.327V8.59h-2.389v16.136
		c0.006,5.521,4.257,10.236,10.09,10.242c5.89,0,10.166-4.804,10.177-10.327v-0.069C33.759,19.043,29.517,14.334,23.674,14.329
		 M31.381,24.726c-0.011,4.458-3.228,8.118-7.707,8.118c-4.368,0-7.771-3.624-7.782-8.203v-0.069
		c0.011-4.452,3.231-8.116,7.71-8.116c4.36,0,7.779,3.625,7.779,8.185V24.726z"/>
	<path fill="#ABADB0" d="M59.248,24.641v0.085c0.007,5.521,4.253,10.237,10.088,10.242c3.154,0,5.829-1.372,7.66-3.483l0.304-0.359
		v2.253c-0.018,4.639-3.775,8.413-8.429,8.416h-0.189v2.222h0.189c5.881,0,10.648-4.77,10.648-10.638v-8.807
		c-0.006-5.528-4.266-10.236-10.098-10.242C63.54,14.329,59.255,19.12,59.248,24.641 M69.336,16.456
		c4.377,0,7.786,3.626,7.786,8.185v0.085c-0.007,4.458-3.228,8.117-7.701,8.117c-4.37,0-7.773-3.623-7.773-8.202v-0.07
		C61.648,20.12,64.865,16.456,69.336,16.456"/>
	<path fill="#ABADB0" d="M198.375,24.552c-0.055-5.756-3.57-10.218-9.084-10.222c-5.346,0-9.369,4.567-9.369,10.283v0.077
		c0,6.122,4.492,10.274,9.678,10.278h0.008h0.021c3.752-0.004,6.135-1.561,8.123-3.699l0.068-0.083l0.07-0.061l-1.596-1.383
		l-0.115,0.119c-1.58,1.684-3.57,2.975-6.498,2.983c-3.6-0.008-6.867-2.561-7.365-7.051l-0.02-0.192h16.008l0.018-0.173
		c0.035-0.233,0.047-0.361,0.053-0.536V24.552z M182.297,23.548l0.02-0.198c0.486-3.985,3.271-6.896,6.834-6.935h0.057h0.002h0.01
		c4.162,0,6.336,3.237,6.723,6.935l0.01,0.198H182.297z"/>
</g>
<g>
	<defs>
		<path id="SVGID_1_" d="M200.018,68.462c0,6.639,5.379,12.014,12.014,12.014c6.637,0,12.01-5.375,12.01-12.014
			c0-6.633-5.373-12.01-12.01-12.01C205.396,56.453,200.018,61.83,200.018,68.462 M158.874,50.219v36.204h25.394v-3.584
			c0-1.158-0.883-2.096-2.004-2.211c-0.078-0.006-0.148-0.021-0.227-0.021s-0.148,0.016-0.221,0.021h-16.582V52.449
			c0-1.233-0.998-2.23-2.227-2.23H158.874z M272.283,50.219c-1.229,0-2.225,0.997-2.225,2.23h-0.014v18.355
			c0,6.684-3.426,10.295-9.055,10.34c-5.629-0.045-9.049-3.656-9.049-10.34V52.449h-0.014c0-1.233-0.998-2.23-2.229-2.23h-0.002
			h-4.121v20.847c0,10.498,6.002,15.926,15.414,15.926s15.416-5.428,15.416-15.926V50.219H272.283z M290.5,56.013h7.139
			c7.602,0,12.568,5.225,12.568,12.363c0,7.133-4.967,12.252-12.568,12.252H290.5V56.013z M284.137,50.219v36.204h13.502
			c11.377,0,19.24-7.914,19.24-18.152c0-10.24-7.863-18.052-19.24-18.052H284.137z M118.809,68.376
			c0,10.443,7.862,18.666,18.411,18.666c6.776,0,10.913-2.484,14.691-6.414l-2.576-2.605h-0.004c-1.562-1.578-3.267,0-3.267,0
			l0.019-0.031c-2.492,2-5.046,3.205-8.654,3.205c-6.933,0-11.947-5.791-11.947-12.926c0-7.143,5.014-12.824,11.947-12.824
			c3.234,0,5.833,1.113,8.196,2.879l-0.008-0.016c0,0,1.902,1.682,3.751-0.439l0.002-0.002l2.282-2.633
			c-3.462-3.314-7.497-5.638-14.173-5.638C126.514,49.598,118.809,58.031,118.809,68.376 M193.875,68.462
			c0-10.027,8.129-18.16,18.156-18.16s18.158,8.132,18.158,18.16s-8.131,18.156-18.158,18.156S193.875,78.49,193.875,68.462
			 M200.971,44.122c-1.645,0-3.664,1.171-4.486,2.593l-11.061,19.156c-0.826,1.428-0.826,3.748,0,5.178l11.061,19.162
			c0.822,1.428,2.842,2.592,4.486,2.592h22.127c1.65,0,3.666-1.164,4.486-2.592l11.066-19.162c0.816-1.43,0.816-3.75,0-5.178
			l-11.066-19.156c-0.82-1.422-2.836-2.593-4.486-2.593H200.971z"/>
	</defs>
	<clipPath id="SVGID_2_">
		<use xlink:href="#SVGID_1_"  overflow="visible"/>
	</clipPath>
	
		<linearGradient id="SVGID_3_" gradientUnits="userSpaceOnUse" x1="-259.7881" y1="402.0098" x2="-259.0887" y2="402.0098" gradientTransform="matrix(0 -121.7577 -121.7577 0 49165.6484 -31519.6445)">
		<stop  offset="0" style="stop-color:#9AB73D"/>
		<stop  offset="1" style="stop-color:#C3D63A"/>
	</linearGradient>
	<rect x="118.809" y="44.122" clip-path="url(#SVGID_2_)" fill="url(#SVGID_3_)" width="198.07" height="48.681"/>
</g>
<g>
	<path fill="#5F6163" d="M98.602,50.469H83.828v35.966h6.116c1.362,0,2.465-1.107,2.465-2.473v-8.061h5.439
		c8.885,0,14.623-5.012,14.623-12.869C112.472,55.4,107.022,50.469,98.602,50.469 M98.099,68.175h-5.69v-9.877h5.54
		c3.708,0,5.838,1.781,5.838,4.986C103.787,66.21,101.501,68.175,98.099,68.175"/>
	<path fill="#5F6163" d="M63.164,50.469H48.391v35.966h6.114c1.363,0,2.466-1.107,2.466-2.473v-8.061h5.442
		c8.883,0,14.62-5.012,14.62-12.869C77.033,55.4,71.586,50.469,63.164,50.469 M62.661,68.175h-5.689v-9.877h5.54
		c3.708,0,5.838,1.781,5.838,4.986C68.349,66.21,66.062,68.175,62.661,68.175"/>
	<path fill="#5F6163" d="M27.751,52.146c0,0-0.75-1.926-3.132-1.926h-1.6h-0.036h-3.908l-0.116,0.261L3.655,86.435H9.74
		c2.867,0,3.931-2.449,3.941-2.467l2.203-5.408l3.107-7.68l4.011-9.779l4.011,9.779l3.109,7.68l2.199,5.408
		c0.011,0.018,1.074,2.467,3.942,2.467h6.083L27.751,52.146z"/>
</g>
</svg>
