<?xml version="1.0" encoding="utf-8"?>
<!-- Generator: Adobe Illustrator 14.0.0, SVG Export Plug-In . SVG Version: 6.00 Build 43363)  -->
<!DOCTYPE svg PUBLIC "-//W3C//DTD SVG 1.1//EN" "http://www.w3.org/Graphics/SVG/1.1/DTD/svg11.dtd">
<svg version="1.1" id="Layer_1" xmlns="http://www.w3.org/2000/svg" xmlns:xlink="http://www.w3.org/1999/xlink" x="0px" y="0px"
	 width="200px" height="50px" viewBox="0 0 200 50" enable-background="new 0 0 200 50" xml:space="preserve">
<g>
	<defs>
		<path id="SVGID_1_" d="M123.503,15.855c0,4.055,3.284,7.333,7.334,7.333c4.049,0,7.33-3.278,7.33-7.333
			c0-4.044-3.281-7.331-7.33-7.331C126.787,8.524,123.503,11.811,123.503,15.855 M98.391,4.722v22.095h15.501v-2.186
			c0-0.707-0.54-1.277-1.227-1.348c-0.044-0.006-0.09-0.016-0.141-0.016c-0.044,0-0.084,0.01-0.131,0.016h-10.122V6.084
			c0-0.755-0.605-1.363-1.358-1.363H98.391z M167.612,4.722c-0.752,0-1.357,0.608-1.357,1.363h-0.014v11.2
			c0,4.081-2.085,6.284-5.522,6.311c-3.44-0.027-5.523-2.23-5.523-6.311v-11.2h-0.009c0-0.755-0.609-1.363-1.358-1.363l0,0h-2.522
			v12.723c0,6.411,3.668,9.723,9.413,9.723c5.741,0,9.41-3.312,9.41-9.723V4.722H167.612z M178.733,8.257h4.352
			c4.641,0,7.676,3.191,7.676,7.547s-3.035,7.479-7.676,7.479h-4.352V8.257z M174.843,4.722v22.095h8.242
			c6.941,0,11.744-4.826,11.744-11.075c0-6.251-4.803-11.02-11.744-11.02H174.843z M73.937,15.804c0,6.374,4.8,11.391,11.238,11.391
			c4.137,0,6.662-1.514,8.967-3.912l-1.57-1.59h-0.007c-0.952-0.965-1.992,0-1.992,0l0.01-0.021
			c-1.517,1.223-3.075,1.959-5.276,1.959c-4.234,0-7.297-3.542-7.297-7.889c0-4.36,3.062-7.828,7.297-7.828
			c1.97,0,3.559,0.68,4.995,1.754l-0.003-0.007c0,0,1.161,1.026,2.295-0.269l0,0l1.392-1.606c-2.113-2.023-4.576-3.444-8.65-3.444
			C78.636,4.342,73.937,9.49,73.937,15.804 M119.753,15.855c0-6.119,4.961-11.083,11.084-11.083c6.119,0,11.084,4.964,11.084,11.083
			c0,6.124-4.965,11.083-11.084,11.083C124.714,26.938,119.753,21.979,119.753,15.855 M124.087,1c-1.006,0-2.239,0.714-2.742,1.583
			l-6.747,11.69c-0.505,0.877-0.505,2.291,0,3.162l6.747,11.694c0.503,0.873,1.736,1.586,2.742,1.586h13.502
			c1.009,0,2.239-0.713,2.739-1.586l6.753-11.694c0.5-0.871,0.5-2.285,0-3.162l-6.753-11.69c-0.5-0.869-1.73-1.583-2.739-1.583
			H124.087z"/>
	</defs>
	<clipPath id="SVGID_2_">
		<use xlink:href="#SVGID_1_"  overflow="visible"/>
	</clipPath>
	
		<linearGradient id="SVGID_3_" gradientUnits="userSpaceOnUse" x1="-347.6689" y1="317.957" x2="-347.242" y2="317.957" gradientTransform="matrix(0 -121.7577 -121.7577 0 38848.2031 -42289.25)">
		<stop  offset="0" style="stop-color:#9AB73D"/>
		<stop  offset="1" style="stop-color:#C3D63A"/>
	</linearGradient>
	<rect x="73.937" y="1" clip-path="url(#SVGID_2_)" fill="url(#SVGID_3_)" width="120.893" height="29.715"/>
</g>
<g>
	<path fill="#5F6163" d="M61.602,4.876h-9.014v21.95h3.731c0.831,0,1.505-0.678,1.505-1.512v-4.917h3.322
		c5.42,0,8.923-3.061,8.923-7.854C70.069,7.882,66.745,4.876,61.602,4.876 M61.299,15.681h-3.475V9.652h3.381
		c2.264,0,3.565,1.086,3.565,3.045C64.771,14.481,63.375,15.681,61.299,15.681"/>
	<path fill="#5F6163" d="M39.975,4.876h-9.017v21.95h3.731c0.834,0,1.508-0.678,1.508-1.512v-4.917h3.321
		c5.421,0,8.924-3.061,8.924-7.854C48.442,7.882,45.117,4.876,39.975,4.876 M39.668,15.681h-3.471V9.652h3.377
		c2.264,0,3.565,1.086,3.565,3.045C43.14,14.481,41.745,15.681,39.668,15.681"/>
	<path fill="#5F6163" d="M18.361,5.898c0,0-0.457-1.177-1.912-1.177h-0.978h-0.023h-2.384l-0.071,0.157l-9.34,21.947h3.712
		c1.75,0,2.4-1.494,2.407-1.506l1.344-3.301l1.895-4.685l2.449-5.97l2.448,5.97l1.897,4.685l1.344,3.301
		c0.007,0.012,0.656,1.506,2.405,1.506h3.712L18.361,5.898z"/>
</g>
</svg>
